<?xml version="1.0" encoding="iso-8859-1"?>
<!-- Generator: Adobe Illustrator 19.0.0, SVG Export Plug-In . SVG Version: 6.00 Build 0)  -->
<svg version="1.1" id="Layer_1" xmlns="http://www.w3.org/2000/svg" xmlns:xlink="http://www.w3.org/1999/xlink" x="0px" y="0px"
	 viewBox="0 0 512 512" style="enable-background:new 0 0 512 512;" xml:space="preserve">
<g>
	<g>
		<path d="M268.578,429.747c-1.323-16.119-5.06-27.938-10.231-37.137c8.107-12.117,11.665-27.136,9.762-44.314
			c-5.914-53.154-52.053-57.822-85.734-61.227c-15.949-1.621-32.435-3.302-37.666-9.404c-2.978-3.473-7.586-5.052-12.015-4.275
			c-4.471,0.828-8.183,3.951-9.737,8.226c-10.624,29.175-12.254,74.547,9.259,105.276c10.453,14.925,30.899,32.7,69.009,32.7
			c14.438,0,26.889-3.268,37.316-9.003c2.202,5.581,3.772,12.331,4.506,21.257c0.546,6.673,6.153,11.75,12.749,11.75
			c0.35,0,0.7-0.026,1.067-0.051C263.902,442.974,269.15,436.796,268.578,429.747z M240.299,372.344
			c-5.666-4.292-11.674-7.893-17.673-11.366c-11.588-6.699-23.578-13.628-34.261-27.179c-4.361-5.521-12.416-6.477-17.971-2.125
			c-5.547,4.378-6.502,12.425-2.125,17.971c13.722,17.399,28.501,25.95,41.54,33.502c4.429,2.56,8.414,4.898,12.015,7.347
			c-5.845,2.27-12.715,3.507-20.574,3.507c-21.751,0-37.914-7.322-48.034-21.777c-12.425-17.749-14.49-44.203-10.377-66.304
			c10.735,3.951,23.629,5.248,36.966,6.596c36.872,3.746,59.503,8.201,62.874,38.596
			C243.558,359.194,242.628,366.268,240.299,372.344z"/>
	</g>
</g>
<g>
	<g>
		<path d="M281.6,51.2H102.4c-14.14,0-25.6,11.46-25.6,25.6v128c0,14.14,11.46,25.6,25.6,25.6h179.2c14.14,0,25.6-11.46,25.6-25.6
			v-128C307.2,62.66,295.74,51.2,281.6,51.2z M281.6,204.8H102.4v-128h179.2V204.8z"/>
	</g>
</g>
<g>
	<g>
		<path d="M402.423,39.697c-6.272-3.021-14.003-0.503-17.126,5.871c-3.098,6.323-0.478,14.003,5.871,17.126
			c12.297,6.033,27.785,15.505,41.088,26.121c-0.256-0.051-0.657-0.145-0.888-0.196c-7.074-1.476-13.679,3.123-15.053,10.052
			c-1.374,6.946,3.123,13.679,10.052,15.053c14.942,2.978,31.479,9.83,34.398,14.157c0.008,0.043,0.034,0.077,0.034,0.119v217.6
			c0,14.123-11.477,25.6-25.6,25.6c-14.123,0-25.6-11.477-25.6-25.6V166.4c0-28.228-22.972-51.2-51.2-51.2V25.6
			c0-14.14-11.46-25.6-25.6-25.6H51.2C37.06,0,25.6,11.46,25.6,25.6v460.8c0,14.14,11.46,25.6,25.6,25.6h281.6
			c14.14,0,25.6-11.46,25.6-25.6V140.8c14.123,0,25.6,11.477,25.6,25.6v179.2c0,28.228,22.972,51.2,51.2,51.2s51.2-22.972,51.2-51.2
			V128C486.4,82.15,411.025,43.904,402.423,39.697z M332.8,486.4H51.2V25.6h281.6V486.4z"/>
	</g>
</g>
<g>
</g>
<g>
</g>
<g>
</g>
<g>
</g>
<g>
</g>
<g>
</g>
<g>
</g>
<g>
</g>
<g>
</g>
<g>
</g>
<g>
</g>
<g>
</g>
<g>
</g>
<g>
</g>
<g>
</g>
</svg>
