<svg width="40" height="31" xmlns="http://www.w3.org/2000/svg"><path d="M31.44 22.4a2.5 2.5 0 1 1 0-5 2.5 2.5 0 0 1 0 5M6.49 12.549C7.783 7.494 9.253 5.6 9.939 4.799c1.072-1.25 3.572-2.5 10-2.5 6.43 0 8.93 1.25 10 2.5.687.802 2.157 2.695 3.45 7.75-2.751 1.054-7.003 1.85-13.45 1.85-6.446 0-10.698-.796-13.45-1.85m1.95 9.85a2.5 2.5 0 1 1 0-4.998 2.5 2.5 0 0 1 0 4.999m27.815-11h-.571c-.12-.505-.243-.986-.36-1.438-.195-.747-1.944-4.796-3.421-6.543-1.973-2.332-5.754-3.42-11.9-3.42-6.145 0-9.926 1.088-11.9 3.419-1.476 1.747-3.225 5.797-3.42 6.543-.12.453-.24.934-.361 1.439h-.57C.599 11.4-.02 13.18 0 14.639c.008.579.522 1.112 1.096 1.185l2.252.285c-.49 2.852-.26 5.94-.36 9.225v3.579c0 .82.667 1.487 1.488 1.487h2.032c.818 0 1.48-.67 1.48-1.487V26.4h24V28.913c0 .82.667 1.487 1.488 1.487h2.032c.818 0 1.48-.67 1.48-1.487V25.334c-.1-3.234.154-6.373-.335-9.224l2.254-.286c.575-.072 1.088-.605 1.096-1.185.02-1.46-.6-3.24-3.75-3.24" fill="#066578" fill-rule="evenodd"/></svg>