<svg width="36" height="40" xmlns="http://www.w3.org/2000/svg"><path d="M0 35v-3h36v3H0Zm0 5v-3.001h27V40H0ZM6.358 6.37c4.95 0 6.873.963 7.698 1.925.528.617 1.66 2.073 2.655 5.966-2.118.81-5.39 1.423-10.353 1.423-2.54 0-4.632-.162-6.358-.427V7.336c1.188-.554 3.125-.965 6.358-.965Zm8.853 11.624a1.923 1.923 0 1 1 0 3.847 1.923 1.923 0 0 1 0-3.847ZM33.677 0A2.323 2.323 0 0 1 36 2.323v23.355C36 26.96 34.96 28 34.195 28H19.482V24.1c-.076-2.49.118-4.907-.258-7.101l1.735-.22c.443-.055.838-.465.844-.911.016-1.123-.462-2.494-2.887-2.494h-.439a63.51 63.51 0 0 0-.278-1.107c-.15-.574-1.496-3.692-2.633-5.037-1.518-1.794-4.429-2.63-9.16-2.63-2.713 0-4.81.285-6.406.858V2.323A2.323 2.323 0 0 1 2.323 0h31.354ZM15.634 25.062V28H2.84C1.04 28 0 26.96 0 25.677v-.756h15.634v.141Z" fill="#066578" fill-rule="evenodd"/></svg>