<svg width="40" height="40" xmlns="http://www.w3.org/2000/svg"><path d="M32.512 31.469c-.767-1.16-1.86-2.116-3.354-2.823-1.599-.761-3.219-1.469-4.829-2.219-.29-.134-.56-.318-.719-.411.389-.801.819-1.499 1.079-2.259.19-.565.4-1.068.74-1.541.72-1.017 1.27-2.116 1.18-3.409-.03-.36-.19-.791-.43-1.027-.22-.227-.23-.391-.23-.648.01-.934.06-1.879-.03-2.813-.23-2.517-1.65-4.161-3.97-4.633-1.489-.297-2.989-.246-4.449.216-2.149.688-3.419 2.475-3.409 4.806.01.853.01 1.716 0 2.568 0 .154-.03.359-.13.463-.52.513-.6 1.15-.43 1.796.22.801.48 1.613.85 2.342.39.771.97 1.417 1.13 2.331.06.391.39.74.609 1.1.13.216.29.41.48.657-.359.185-.67.369-1.019.544-1.68.76-3.35 1.51-5.029 2.26-1.303.584-2.367 1.464-3.046 2.72C4.719 28.459 3 24.432 3 20c0-9.374 7.626-17 17-17 9.374 0 17 7.626 17 17 0 4.422-1.711 8.443-4.488 11.469M20 0C8.954 0 0 8.954 0 20s8.954 20 20 20 20-8.954 20-20S31.046 0 20 0" fill="#066578" fill-rule="evenodd"/></svg>