<svg width="40" height="40" xmlns="http://www.w3.org/2000/svg"><path d="M24.137 10.903 20 16.597l-4.136-5.694A9.94 9.94 0 0 1 20 10c1.477 0 2.875.328 4.137.903Zm-11.508 2.355 4.134 5.69-6.696 2.176A9.933 9.933 0 0 1 10 20c0-2.6 1.001-4.963 2.63-6.742ZM18 30v-.201a10.01 10.01 0 0 1-6.695-4.87L18 22.753V30Zm11.933-8.876-6.696-2.176 4.134-5.69A9.953 9.953 0 0 1 30 20c0 .38-.025.755-.067 1.124ZM20 18a2 2 0 1 1-.001 4.001A2 2 0 0 1 20 18Zm2 11.799v.2-7.246l6.695 2.176A10.007 10.007 0 0 1 22 29.799ZM20 40c11.046 0 20-8.954 20-20S31.046 0 20 0 0 8.954 0 20s8.954 20 20 20m0-33.5c7.456 0 13.5 6.044 13.5 13.5S27.456 33.5 20 33.5 6.5 27.456 6.5 20 12.544 6.5 20 6.5" fill="#066578" fill-rule="evenodd"/></svg>